# File produced by Open Asset Import Library (http://www.assimp.sf.net)
# (assimp v3.1.187256796)

mtllib BlockVar4LowPoly.mtl

# vertex positions
v -4.591918 4.199241 0.181890
v -2.676292 4.199248 -0.753763
v -5.010929 4.197712 -0.857482
v -6.335819 2.568647 0.472014
v -6.090829 2.569636 -0.815906
v -4.265584 2.569213 0.530368
v -6.475375 3.701823 -0.304689
v -6.493755 4.123453 -0.092280
v -6.458715 4.058125 -0.522896
v -3.436781 3.149154 -0.980961
v -5.732734 2.653369 -0.980131
v -5.388556 3.652051 -0.980368
v -2.707936 4.169775 -0.872160
v -3.207094 4.180838 -0.947114
v -6.354032 2.757668 0.649230
v -3.052308 2.700087 0.649538
v -2.621845 4.114975 0.649538
v -3.268430 2.569590 -0.900720
v -2.602846 2.569156 -0.895099
v -2.413096 2.653612 -0.683198
v -2.411821 4.115856 -0.810541
v -2.411579 3.564630 0.532406
v -6.494041 2.605693 0.335675
v -6.498708 3.442376 0.483463
v -6.496745 2.622731 -0.083625
v -5.565039 4.119194 0.649058
v -2.652876 4.199216 0.539200
v -2.416138 4.165719 0.585149
v -2.561551 3.642712 0.647364
v -6.412081 3.016015 0.647111
v -5.994631 3.989927 0.646079
v -6.341430 3.716594 0.635371
v -6.411782 4.188478 0.312562
v -6.009439 4.198061 0.580105
v -6.377447 4.191374 -0.465062
v -5.305575 2.585389 -0.951235
v -4.709047 2.717947 -0.977097
v -4.821731 2.569334 -0.837958
v -6.474779 3.207395 -0.483030
v -6.415259 2.869665 -0.976326
v -6.390255 3.820117 -0.975610
v -2.412825 3.904806 -0.945852
v -2.612416 4.096640 -0.919612
v -4.007985 4.060507 -0.980670
v -2.857139 4.106676 -0.980231
v -2.561225 2.674189 -0.973561
v -3.700143 2.576743 -0.873222
v -3.717427 2.768171 -0.977753
v -3.305865 2.746566 -0.976292
v -5.014861 4.058233 -0.974904
v -4.600832 4.197674 -0.970729
v -5.407958 4.197618 -0.831471
v -6.039597 4.196499 -0.955442
v -5.627025 4.056911 -0.973679
v -5.856677 4.167239 -0.971184
v -5.302921 4.180593 -0.862902
v -6.167305 4.147039 -0.978285
v -2.498598 3.896247 -0.976943
v -2.411911 2.890786 -0.894575
v -2.518508 2.570670 0.380519
v -6.437900 3.518734 -0.922074
v -6.474938 2.923830 -0.955917
v -2.872253 2.571031 0.546771
v -4.421659 2.690255 0.647011
v -6.399637 4.051303 -0.933139
v -6.396144 4.186513 -0.851551
v -6.161129 4.106295 0.539985
v -6.499651 2.801957 0.463127
v -4.977357 2.600571 0.607391
v -6.256646 2.638050 0.591071
v -4.123509 2.593820 -0.931819
v -4.185047 2.695912 -0.978718
v -3.697314 4.196914 -0.848174
v -4.492916 2.569055 -0.851686
v -2.525013 4.192632 -0.695682
v -2.448464 4.162879 -0.749736
v -6.495663 2.637265 -0.665008
v -6.367948 2.571817 -0.627373
v -3.608346 4.074946 -0.975810
v -6.444878 2.590678 -0.350495
v -3.982342 4.153481 -0.938013
v -2.976255 2.589628 -0.974021
v -5.279462 4.175346 0.641561
v -5.916700 4.130027 0.637882
v -2.526549 4.183519 0.637511
v -4.890063 4.198468 0.604101
v -2.617421 2.769306 0.649546
v -2.537026 3.045381 0.647597
v -6.367921 3.977330 0.522706
v -2.411217 2.684839 0.399893
v -6.493897 3.877961 0.477207
v -6.495595 4.138000 0.342279
v -6.447986 4.175595 -0.158356
v -6.282283 2.699504 0.649822
v -6.439412 3.984198 -0.797852
v -6.437650 4.139560 -0.490038
v -5.596507 4.197701 0.566128
v -2.411807 3.122675 0.527769
v -2.413546 2.905276 0.543226
v -2.445654 3.364145 0.584298
v -6.493919 2.673610 -0.351331

# UV coordinates
vt 0.522315 0.540968
vt 0.818772 0.522719
vt 0.529333 0.696155
vt 0.146209 0.410197
vt 0.076360 0.243875
vt 0.380112 0.287936
vt 0.234105 0.665434
vt 0.286878 0.654234
vt 0.285787 0.702886
vt 0.645261 0.777746
vt 0.950610 0.743726
vt 0.894825 0.869366
vt 0.832883 0.537022
vt 0.824144 0.614846
vt 0.167667 0.447374
vt 0.531735 0.236725
vt 0.710558 0.346845
vt 0.440137 0.053723
vt 0.534911 0.019683
vt 0.575991 0.049682
vt 0.797348 0.098335
vt 0.684011 0.258688
vt 0.122742 0.515070
vt 0.218870 0.548192
vt 0.100894 0.589953
vt 0.377783 0.538054
vt 0.721608 0.367306
vt 0.743138 0.332146
vt 0.669486 0.294821
vt 0.187851 0.482172
vt 0.322954 0.550730
vt 0.263649 0.546436
vt 0.299685 0.607106
vt 0.340372 0.573354
vt 0.309459 0.700040
vt 0.898375 0.727669
vt 0.817184 0.736442
vt 0.838193 0.710976
vt 0.227530 0.158575
vt 0.160108 0.177254
vt 0.167979 0.676434
vt 0.119947 0.751117
vt 0.258776 0.754027
vt 0.090192 0.849654
vt 0.010500 0.236788
vt 0.103797 0.198982
vt 0.852960 0.504971
vt 0.881885 0.514331
vt 0.850010 0.532900
vt 0.707515 0.912468
vt 0.548844 0.897835
vt 0.529389 0.710647
vt 0.680398 0.695438
vt 0.684480 0.726193
vt 0.626705 0.721036
vt 0.845611 0.923541
vt 0.785903 0.937862
vt 0.468660 0.722507
vt 0.362938 0.762195
vt 0.930159 0.920914
vt 0.962588 0.933438
vt 0.889816 0.946058
vt 0.999999 0.927360
vt 0.505698 0.863222
vt 0.769599 0.070093
vt 0.564704 0.000001
vt 0.607242 0.032013
vt 0.570646 0.184377
vt 0.213373 0.742810
vt 0.126262 0.741632
vt 0.539792 0.211175
vt 0.377679 0.319826
vt 0.290886 0.749999
vt 0.307986 0.743695
vt 0.322734 0.775040
vt 0.318150 0.574619
vt 0.152615 0.504510
vt 0.307903 0.341953
vt 0.166453 0.422039
vt 0.738359 0.703253
vt 0.749263 0.720997
vt 0.848250 0.949764
vt 0.661240 0.936971
vt 0.841458 0.959966
vt 0.519428 0.930290
vt 0.748470 0.702653
vt 0.798333 0.704809
vt 0.829650 0.502524
vt 0.789531 0.690619
vt 0.270918 0.135315
vt 0.842149 0.502021
vt 0.037256 0.286003
vt 0.057743 0.283126
vt 0.595009 0.915280
vt 0.652361 0.908142
vt 0.116350 0.405105
vt 0.069386 0.320473
vt 0.702096 0.927203
vt 0.475834 0.026567
vt 0.414061 0.526177
vt 0.342828 0.559534
vt 0.727665 0.348062
vt 0.461197 0.506518
vt 0.579869 0.219597
vt 0.614085 0.238723
vt 0.287791 0.574273
vt 0.586175 0.189978
vt 0.267958 0.575601
vt 0.290425 0.603131
vt 0.297077 0.662785
vt 0.170148 0.433921
vt 0.843631 0.564395
vt 0.880932 0.526322
vt 0.277561 0.733915
vt 0.297771 0.700853
vt 0.385170 0.552533
vt 0.082511 0.355868
vt 0.632680 0.228966
vt 0.607176 0.216019
vt 0.581225 0.698553
vt 0.620813 0.695541
vt 0.655537 0.253947
vt 0.905110 0.950883
vt 0.770121 0.057800
vt 0.397039 0.759314
vt 0.092657 0.684610
vt 0.103145 0.635497
vt 0.057505 0.325963
vt 0.000001 0.240979

# vertex normals
vn -0.000456 1.000000 -0.000231
vn 0.002686 0.999963 -0.008166
vn -0.005958 0.999360 -0.035263
vn -0.020350 -0.998666 0.047460
vn -0.022138 -0.997713 -0.063861
vn 0.000481 -0.999500 0.031610
vn -0.998892 0.000127 -0.047062
vn -0.998512 0.037969 -0.039149
vn -0.993515 0.073441 -0.086797
vn 0.001329 -0.002489 -0.999996
vn -0.010692 -0.046788 -0.998848
vn -0.000682 0.003079 -0.999995
vn 0.151136 0.871055 -0.467356
vn -0.001765 0.861443 -0.507852
vn -0.012096 -0.006073 0.999908
vn 0.001276 -0.034315 0.999410
vn 0.000910 0.005752 0.999983
vn -0.006163 -0.998473 -0.054905
vn 0.038402 -0.999071 -0.019570
vn 0.994011 -0.108159 -0.015646
vn 0.998919 0.040013 -0.023667
vn 0.999162 0.000128 0.040922
vn -0.929886 -0.346560 0.123317
vn -0.997851 0.007059 0.065143
vn -0.999805 -0.008426 -0.017836
vn -0.002235 0.021815 0.999759
vn 0.012851 0.999874 0.009330
vn 0.909300 0.395856 0.128343
vn 0.460820 -0.005863 0.887474
vn -0.263615 0.007949 0.964595
vn -0.083546 0.077909 0.993454
vn -0.426282 0.123416 0.896132
vn -0.164568 0.979004 0.120282
vn -0.013447 0.999502 0.028531
vn -0.063415 0.997982 -0.003180
vn 0.017722 -0.806861 -0.590475
vn 0.005465 -0.254347 -0.967097
vn 0.004554 -0.998345 -0.057332
vn -0.999076 0.023244 -0.036143
vn -0.135932 -0.239619 -0.961304
vn -0.138363 0.015092 -0.990267
vn 0.878169 0.038640 -0.476788
vn 0.286587 0.528349 -0.799197
vn 0.000427 0.019619 -0.999807
vn 0.011794 0.037557 -0.999225
vn 0.104318 -0.046191 -0.993471
vn 0.005730 -0.529498 -0.848292
vn 0.022118 -0.205244 -0.978461
vn -0.022775 -0.140764 -0.989781
vn -0.021363 0.171918 -0.984880
vn -0.015257 0.688412 -0.725160
vn 0.000337 0.999926 -0.012147
vn -0.009639 0.999509 -0.029816
vn 0.022617 0.166541 -0.985775
vn 0.100267 0.549242 -0.829626
vn 0.043745 0.645234 -0.762731
vn -0.021114 0.035512 -0.999146
vn 0.095657 0.041163 -0.994563
vn 0.883865 -0.096279 -0.457727
vn 0.300523 -0.948164 0.103303
vn -0.992830 0.049483 -0.108810
vn -0.991885 0.028763 -0.123845
vn 0.014012 -0.986010 0.166094
vn 0.004771 -0.488763 0.872404
vn -0.632008 0.239405 -0.737055
vn -0.557368 0.799980 -0.222201
vn -0.395814 0.533356 0.747572
vn -0.920144 -0.102957 0.377803
vn -0.006684 -0.761783 0.647798
vn -0.112048 -0.783925 0.610661
vn 0.008880 -0.623269 -0.781957
vn 0.004057 -0.093124 -0.995646
vn 0.003900 0.962439 -0.271469
vn -0.004673 -0.998293 -0.058227
vn 0.149714 0.988595 -0.016270
vn 0.490365 0.866239 -0.095774
vn -0.682540 -0.614396 -0.395798
vn -0.116216 -0.992269 -0.043544
vn -0.025926 0.586002 -0.809895
vn -0.410367 -0.911864 -0.010126
vn 0.071014 0.607052 -0.791483
vn -0.019536 -0.479043 -0.877574
vn -0.009884 0.437845 0.898996
vn -0.214125 0.309756 0.926392
vn 0.069062 0.693534 0.717106
vn -0.000493 0.997509 0.070532
vn 0.143520 -0.194004 0.970445
vn 0.393252 -0.023762 0.919124
vn -0.392589 0.378214 0.838349
vn 0.963765 -0.242117 0.111966
vn -0.775032 0.144352 0.615214
vn -0.937580 0.280725 0.205271
vn -0.563471 0.825552 -0.031069
vn -0.080559 -0.439573 0.894587
vn -0.993698 0.037350 -0.105686
vn -0.839601 0.537865 -0.075974
vn -0.007229 0.991186 0.132281
vn 0.997791 -0.000953 0.066417
vn 0.727879 -0.197210 0.656734
vn 0.649022 0.011950 0.760675
vn -0.995217 -0.097596 -0.004291

# Mesh
g Group38448
usemtl DefaultMaterial
f 1/1/1 2/2/2 3/3/3
f 4/4/4 5/5/5 6/6/6
f 7/7/7 8/8/8 9/9/9
f 10/10/10 11/11/11 12/12/12
f 13/13/13 14/14/14 2/2/2
f 15/15/15 16/16/16 17/17/17
f 18/18/18 19/19/19 6/6/6
f 20/20/20 21/21/21 22/22/22
f 23/23/23 24/24/24 25/25/25
f 17/17/17 26/26/26 15/15/15
f 1/1/1 27/27/27 2/2/2
f 22/22/22 28/28/28 29/29/29
f 30/30/30 31/31/31 32/32/32
f 33/33/33 34/34/34 35/35/35
f 36/36/36 37/37/37 38/38/38
f 5/5/5 38/39/38 6/6/6
f 5/5/5 36/40/36 38/39/38
f 25/25/25 24/24/24 39/41/39
f 40/42/40 41/43/41 11/44/11
f 5/5/5 40/45/40 11/46/11
f 21/47/21 42/48/42 43/49/43
f 12/12/12 44/50/44 10/10/10
f 10/10/10 45/51/45 46/52/46
f 47/53/47 48/54/48 49/55/49
f 50/56/50 51/57/51 44/50/44
f 52/58/52 53/59/53 34/34/34
f 54/60/54 55/61/55 56/62/56
f 57/63/57 12/12/12 11/11/11
f 58/64/58 46/52/46 45/51/45
f 42/65/42 21/21/21 20/20/20
f 20/20/20 46/66/46 59/67/59
f 60/68/60 19/19/19 20/20/20
f 34/34/34 53/59/53 35/35/35
f 61/69/61 41/43/41 62/70/62
f 6/6/6 19/19/19 63/71/63
f 63/71/63 64/72/64 6/6/6
f 65/73/65 66/74/66 57/75/57
f 57/75/57 11/44/11 41/43/41
f 49/55/49 10/10/10 46/52/46
f 46/66/46 20/20/20 19/19/19
f 8/8/8 7/7/7 24/24/24
f 34/34/34 33/33/33 67/76/67
f 11/11/11 10/10/10 37/37/37
f 49/55/49 48/54/48 10/10/10
f 68/77/68 30/30/30 24/24/24
f 4/4/4 69/78/69 70/79/70
f 48/54/48 47/53/47 71/80/71
f 72/81/72 10/10/10 48/54/48
f 3/82/3 51/57/51 50/56/50
f 73/83/73 3/84/3 2/85/2
f 72/81/72 37/37/37 10/10/10
f 71/86/71 74/87/74 37/37/37
f 28/28/28 22/22/22 21/21/21
f 27/27/27 28/28/28 75/88/75
f 47/53/47 74/89/74 71/80/71
f 6/6/6 74/90/74 18/18/18
f 28/28/28 76/91/76 75/88/75
f 76/91/76 13/13/13 75/88/75
f 40/45/40 5/5/5 77/92/77
f 5/5/5 4/4/4 78/93/78
f 44/50/44 45/51/45 10/10/10
f 14/94/14 45/51/45 79/95/79
f 23/96/23 80/97/80 4/4/4
f 4/4/4 70/79/70 23/96/23
f 51/57/51 73/83/73 81/98/81
f 51/57/51 3/84/3 73/83/73
f 82/99/82 19/19/19 18/18/18
f 19/19/19 82/99/82 46/66/46
f 17/17/17 83/100/83 26/26/26
f 34/34/34 67/76/67 84/101/84
f 85/102/85 28/28/28 27/27/27
f 27/27/27 86/103/86 85/102/85
f 36/40/36 5/5/5 11/46/11
f 11/11/11 37/37/37 36/36/36
f 15/15/15 26/26/26 30/30/30
f 15/15/15 30/30/30 68/77/68
f 14/94/14 79/95/79 73/83/73
f 14/94/14 73/83/73 2/85/2
f 16/16/16 64/72/64 63/71/63
f 17/17/17 87/104/87 88/105/88
f 32/32/32 24/24/24 30/30/30
f 89/106/89 32/32/32 31/31/31
f 12/12/12 50/56/50 44/50/44
f 54/60/54 56/62/56 50/56/50
f 60/68/60 20/20/20 90/107/90
f 60/68/60 90/107/90 87/104/87
f 91/108/91 32/32/32 89/106/89
f 92/109/92 91/108/91 89/106/89
f 17/17/17 16/16/16 87/104/87
f 16/16/16 63/71/63 87/104/87
f 35/35/35 93/110/93 33/33/33
f 33/33/33 92/109/92 67/76/67
f 15/15/15 64/72/64 16/16/16
f 15/15/15 23/96/23 94/111/94
f 45/112/45 14/14/14 13/13/13
f 45/112/45 43/49/43 58/113/58
f 66/74/66 65/73/65 95/114/95
f 96/115/96 66/74/66 9/9/9
f 68/77/68 23/23/23 15/15/15
f 23/23/23 68/77/68 24/24/24
f 27/27/27 1/1/1 86/103/86
f 97/116/97 26/26/26 83/100/83
f 78/93/78 77/92/77 5/5/5
f 23/96/23 25/117/25 80/97/80
f 63/71/63 19/19/19 60/68/60
f 60/68/60 87/104/87 63/71/63
f 26/26/26 34/34/34 84/101/84
f 31/31/31 30/30/30 26/26/26
f 1/1/1 52/58/52 34/34/34
f 97/116/97 34/34/34 26/26/26
f 90/107/90 20/20/20 98/118/98
f 87/104/87 90/107/90 99/119/99
f 62/70/62 39/41/39 61/69/61
f 62/70/62 25/25/25 39/41/39
f 69/78/69 64/72/64 94/111/94
f 15/15/15 94/111/94 64/72/64
f 49/55/49 46/52/46 82/120/82
f 18/121/18 49/55/49 82/120/82
f 87/104/87 99/119/99 88/105/88
f 29/29/29 88/105/88 100/122/100
f 66/74/66 53/59/53 57/75/57
f 57/63/57 55/61/55 54/60/54
f 91/108/91 24/24/24 32/32/32
f 91/108/91 92/109/92 24/24/24
f 98/118/98 100/122/100 88/105/88
f 98/118/98 20/20/20 22/22/22
f 1/1/1 3/3/3 52/58/52
f 56/62/56 55/61/55 52/123/52
f 6/6/6 64/72/64 69/78/69
f 4/4/4 6/6/6 69/78/69
f 59/67/59 42/65/42 20/20/20
f 42/65/42 59/67/59 46/66/46
f 85/102/85 83/100/83 17/17/17
f 29/29/29 28/28/28 85/102/85
f 92/109/92 33/33/33 93/110/93
f 92/109/92 8/8/8 24/24/24
f 46/66/46 58/124/58 42/65/42
f 43/49/43 42/48/42 58/113/58
f 72/81/72 48/54/48 71/80/71
f 71/86/71 37/37/37 72/81/72
f 29/29/29 85/102/85 17/17/17
f 29/29/29 17/17/17 88/105/88
f 39/41/39 95/114/95 61/69/61
f 61/69/61 95/114/95 41/43/41
f 50/56/50 56/62/56 3/82/3
f 52/123/52 3/82/3 56/62/56
f 65/73/65 57/75/57 41/43/41
f 95/114/95 65/73/65 41/43/41
f 84/101/84 67/76/67 89/106/89
f 92/109/92 89/106/89 67/76/67
f 74/89/74 47/53/47 18/121/18
f 18/121/18 47/53/47 49/55/49
f 12/12/12 54/60/54 50/56/50
f 12/12/12 57/63/57 54/60/54
f 97/116/97 83/100/83 86/103/86
f 85/102/85 86/103/86 83/100/83
f 13/13/13 76/91/76 21/47/21
f 28/28/28 21/47/21 76/91/76
f 7/7/7 95/114/95 39/41/39
f 39/41/39 24/24/24 7/7/7
f 53/59/53 52/58/52 55/125/55
f 55/125/55 57/75/57 53/59/53
f 45/51/45 44/50/44 79/95/79
f 81/98/81 44/50/44 51/57/51
f 77/126/77 101/127/101 62/70/62
f 101/128/101 77/92/77 80/97/80
f 22/22/22 100/122/100 98/118/98
f 29/29/29 100/122/100 22/22/22
f 66/74/66 96/115/96 35/35/35
f 53/59/53 66/74/66 35/35/35
f 40/42/40 62/70/62 41/43/41
f 77/92/77 62/129/62 40/45/40
f 73/83/73 79/95/79 81/98/81
f 81/98/81 79/95/79 44/50/44
f 93/110/93 8/8/8 92/109/92
f 9/9/9 8/8/8 96/115/96
f 1/1/1 97/116/97 86/103/86
f 34/34/34 97/116/97 1/1/1
f 78/93/78 4/4/4 80/97/80
f 80/97/80 77/92/77 78/93/78
f 101/127/101 25/25/25 62/70/62
f 25/117/25 101/128/101 80/97/80
f 93/110/93 35/35/35 96/115/96
f 96/115/96 8/8/8 93/110/93
f 84/101/84 31/31/31 26/26/26
f 84/101/84 89/106/89 31/31/31
f 43/49/43 45/112/45 13/13/13
f 13/13/13 21/47/21 43/49/43
f 6/6/6 38/39/38 74/90/74
f 74/87/74 38/38/38 37/37/37
f 2/2/2 27/27/27 75/88/75
f 13/13/13 2/2/2 75/88/75
f 99/119/99 90/107/90 98/118/98
f 99/119/99 98/118/98 88/105/88
f 70/79/70 69/78/69 94/111/94
f 70/79/70 94/111/94 23/96/23
f 95/114/95 7/7/7 9/9/9
f 9/9/9 66/74/66 95/114/95
