# File produced by Open Asset Import Library (http://www.assimp.sf.net)
# (assimp v3.1.187256796)

mtllib BlockVar3LowPoly.mtl

# vertex positions
v -0.511017 5.692119 0.701236
v -0.089054 5.715169 0.253386
v -1.254712 5.717006 0.666593
v -3.430544 4.326737 0.760769
v -0.383573 4.324781 -0.765511
v -1.288528 4.329729 0.714057
v -3.746598 4.382793 -0.845534
v -0.286788 5.547470 -0.925642
v -0.340361 4.504005 -0.923887
v -0.097323 4.428828 -0.554349
v -0.098462 5.557973 -0.771468
v -0.071825 5.458652 0.695444
v -3.770256 4.328685 -0.744788
v -0.873950 5.610875 0.759801
v -2.057529 5.584427 0.784527
v -1.813277 4.824813 0.771747
v -2.342644 5.623607 -0.877812
v -3.735425 4.503391 0.752454
v -3.588323 5.484027 0.774319
v -2.748153 5.697865 0.793407
v -3.915396 5.299476 -0.809220
v -3.923172 4.412917 -0.639579
v -3.896233 5.387352 0.518842
v -3.633151 5.630695 0.466426
v -0.662008 5.715213 -0.871765
v -2.565336 5.717333 -0.678009
v -3.813186 5.619653 -0.642326
v -3.352143 5.553823 -0.851588
v -0.216275 4.434474 0.680545
v -0.070407 4.455964 0.568156
v -3.899248 4.447868 0.547101
v -3.824273 4.349146 0.509356
v -2.095004 4.414686 0.783523
v -0.111522 4.969565 -0.834136
v -3.628354 5.674988 -0.609233
v -3.158746 5.676960 -0.801391
v -0.216132 4.336620 0.531365
v -3.891817 5.132319 0.749732

# UV coordinates
vt 0.415637 0.904514
vt 0.322314 0.942358
vt 0.456943 0.807964
vt 0.653782 0.211049
vt 0.188768 0.260819
vt 0.360744 0.091915
vt 0.212324 0.331481
vt 0.145574 0.847407
vt 0.000001 0.775965
vt 0.159945 0.216640
vt 0.020910 0.241284
vt 0.033482 0.000001
vt 0.625282 0.452963
vt 0.454520 0.863951
vt 0.539050 0.717669
vt 0.632771 0.795495
vt 0.294691 0.587952
vt 0.751032 0.250370
vt 0.744110 0.196176
vt 0.895660 0.293648
vt 0.570515 0.624339
vt 0.739150 0.540001
vt 0.651234 0.445587
vt 0.844488 0.360908
vt 0.659621 0.534719
vt 0.816516 0.635139
vt 0.572248 0.492094
vt 0.622640 0.512099
vt 0.195814 0.809935
vt 0.341106 0.571069
vt 0.793219 0.540079
vt 0.352043 0.455854
vt 0.359604 0.370478
vt 0.412169 0.408773
vt 0.000001 0.068874
vt 0.172475 0.895390
vt 0.581972 0.999999
vt 0.174305 0.045184
vt 0.389866 0.973527
vt 0.421405 0.961901
vt 0.720452 0.279737
vt 0.698973 0.275312
vt 0.618371 0.469826
vt 0.670239 0.887069
vt 0.710765 0.785978
vt 0.170401 0.293013
vt 0.097746 0.255913
vt 0.409563 0.436498
vt 0.357165 0.488056
vt 0.201782 0.059826
vt 0.887974 0.390595
vt 0.204838 0.032570
vt 0.829584 0.312116
vt 0.902026 0.336659
vt 0.023450 0.285879
vt 0.160340 0.862226
vt 0.708253 0.261011
vt 0.178128 0.016608

# vertex normals
vn 0.135840 0.777391 0.614175
vn 0.227553 0.973657 0.014564
vn -0.001118 0.999895 0.014433
vn -0.013992 -0.936256 0.351039
vn 0.018279 -0.996959 -0.075753
vn 0.018072 -0.968266 0.249268
vn -0.047024 -0.100945 -0.993780
vn 0.009086 0.023881 -0.999674
vn 0.054623 -0.143582 -0.988130
vn 0.981639 -0.175510 -0.074707
vn 0.959617 0.258068 -0.111960
vn 0.944970 0.053737 0.322715
vn -0.025713 -0.999176 -0.031415
vn 0.048495 -0.003619 0.998817
vn 0.022966 0.039355 0.998961
vn 0.042711 -0.034517 0.998491
vn -0.025832 0.140611 -0.989728
vn -0.272453 -0.167187 0.947532
vn -0.142759 0.204558 0.968388
vn -0.040752 0.777683 0.627335
vn -0.905647 0.109655 -0.409609
vn -0.993012 -0.108932 -0.045407
vn -0.982216 0.177386 0.061537
vn -0.291928 0.945798 0.142285
vn 0.033892 0.992927 -0.113788
vn -0.014724 0.999408 -0.031110
vn -0.711037 0.691291 -0.128622
vn -0.082943 0.136257 -0.987195
vn 0.092944 -0.099231 0.990714
vn 0.985427 -0.140712 0.095566
vn -0.991001 -0.086103 0.102490
vn -0.335884 -0.936615 0.099670
vn 0.008662 -0.043899 0.998998
vn 0.764175 -0.082884 -0.639662
vn -0.083240 0.996372 -0.017711
vn -0.069600 0.864099 -0.498487
vn 0.145531 -0.987812 0.055215
vn -0.707083 0.057627 0.704778

# Mesh
g Group47597
usemtl DefaultMaterial
f 1/1/1 2/2/2 3/3/3
f 4/4/4 5/5/5 6/6/6
f 7/7/7 8/8/8 9/9/9
f 10/10/10 11/11/11 12/12/12
f 13/13/13 5/5/5 4/4/4
f 14/14/14 15/15/15 16/16/16
f 17/17/17 8/8/8 7/7/7
f 18/18/18 4/19/4 19/20/19
f 20/21/20 1/1/1 3/3/3
f 21/22/21 22/23/22 23/24/23
f 19/25/19 4/26/4 20/21/20
f 24/27/24 19/28/19 20/21/20
f 25/29/25 17/17/17 26/30/26
f 23/24/23 27/31/27 21/22/21
f 28/32/28 7/7/7 21/33/21
f 21/33/21 27/34/27 28/32/28
f 12/12/12 11/11/11 2/35/2
f 25/29/25 3/3/3 2/2/2
f 8/8/8 17/17/17 25/29/25
f 2/2/2 11/36/11 25/29/25
f 16/16/16 29/37/29 14/14/14
f 30/38/30 10/10/10 12/12/12
f 2/2/2 1/1/1 12/39/12
f 12/40/12 14/14/14 29/37/29
f 22/23/22 31/41/31 23/24/23
f 32/42/32 13/13/13 4/4/4
f 7/43/7 22/23/22 21/22/21
f 13/13/13 32/42/32 22/23/22
f 6/44/6 33/45/33 4/26/4
f 4/26/4 33/45/33 20/21/20
f 7/43/7 5/5/5 13/13/13
f 22/23/22 7/43/7 13/13/13
f 14/14/14 12/40/12 1/1/1
f 15/15/15 14/14/14 1/1/1
f 26/30/26 20/21/20 3/3/3
f 26/30/26 3/3/3 25/29/25
f 7/43/7 9/46/9 5/5/5
f 9/46/9 34/47/34 10/10/10
f 20/21/20 26/30/26 35/48/35
f 36/49/36 35/48/35 26/30/26
f 37/50/37 5/5/5 10/10/10
f 5/5/5 9/46/9 10/10/10
f 23/24/23 24/51/24 27/31/27
f 20/21/20 35/48/35 24/27/24
f 6/6/6 5/5/5 37/50/37
f 29/37/29 16/16/16 6/44/6
f 28/32/28 27/34/27 35/48/35
f 35/48/35 27/34/27 24/27/24
f 29/52/29 6/6/6 37/50/37
f 37/50/37 10/10/10 30/38/30
f 31/41/31 38/53/38 23/24/23
f 24/51/24 23/24/23 19/54/19
f 34/47/34 9/46/9 8/55/8
f 11/11/11 10/10/10 34/47/34
f 33/45/33 15/15/15 20/21/20
f 15/15/15 1/1/1 20/21/20
f 11/36/11 8/56/8 25/29/25
f 34/47/34 8/55/8 11/11/11
f 15/15/15 33/45/33 16/16/16
f 16/16/16 33/45/33 6/44/6
f 4/19/4 18/18/18 32/57/32
f 38/53/38 31/41/31 18/18/18
f 17/17/17 36/49/36 26/30/26
f 36/49/36 28/32/28 35/48/35
f 32/57/32 18/18/18 31/41/31
f 31/41/31 22/23/22 32/42/32
f 36/49/36 17/17/17 28/32/28
f 28/32/28 17/17/17 7/7/7
f 29/52/29 37/50/37 30/38/30
f 30/38/30 12/12/12 29/58/29
f 38/53/38 19/54/19 23/24/23
f 38/53/38 18/18/18 19/20/19
