# File produced by Open Asset Import Library (http://www.assimp.sf.net)
# (assimp v3.1.187256796)

mtllib WareWareShroomLow.mtl

# vertex positions
v 0.039657 -1.102895 0.352033
v -1.036110 -1.563092 0.389814
v -0.383565 -1.285811 -0.641582
v -1.147298 -1.501346 1.187938
v -0.624148 -1.252314 1.362244
v -0.965512 0.013112 0.158357
v 0.067018 -1.632614 -0.213308
v 0.159719 -1.571121 0.099099
v 0.379171 -1.837677 0.060358
v 0.169129 -1.806685 0.204748
v 0.861092 -3.280784 0.242313
v -0.066519 -1.721196 0.180821
v 0.371859 -2.620968 0.207440
v 0.292526 -2.830794 0.037750
v 0.770758 -3.527029 -0.270726
v 1.402169 -6.537534 -0.446955
v 1.099577 -5.619703 -0.329533
v 0.735694 -3.724273 0.252665
v 0.619087 -3.780743 0.126686
v 0.890662 -5.636398 0.146218
v 1.142705 -5.643785 0.352263
v 0.862881 -3.005605 -0.179737
v 1.292312 -4.416013 0.126027
v 1.572377 -6.532709 0.394348
v 1.731250 -6.528205 0.239983
v -1.126537 -2.277732 -1.572551
v -1.265625 -1.512495 -1.074793
v -0.726213 -2.035683 -1.764062
v 1.164066 -1.246112 -1.108323
v 0.947398 -1.429438 -1.446660
v 0.730851 -0.746338 -0.721578
v -1.705703 -1.661075 0.225000
v -1.492885 -1.567890 0.768090
v -1.070664 -0.041987 0.015865
v -0.997639 -2.205352 -0.751214
v -0.851879 -1.537010 -0.642967
v -1.103202 -1.757208 -0.388048
v -0.465504 -1.423508 0.865938
v 0.083626 -1.236297 0.746442
v 0.331840 -1.763731 1.141059
v 0.737757 -0.775956 0.727893
v 0.901379 -0.681818 0.134452
v -0.187260 -0.278185 0.342047
v -0.113849 -1.949733 -1.784149
v -1.097791 -2.372881 -1.192942
v -1.419516 -2.524068 -0.615680
v -1.439001 -2.471399 -1.003894
v -1.113238 -2.377447 -0.830729
v -1.250197 -2.351063 -0.226562
v -0.234475 -1.915688 1.174278
v -0.752590 -2.182363 1.016823
v 0.895725 -1.498263 0.374553
v 0.674980 -1.645341 0.905869
v 0.357664 -1.131420 0.439128
v 0.271203 -1.090405 -0.455735
v 0.938454 -1.473614 -0.279134
v 0.461711 -1.074446 0.024199
v -0.145203 -1.041645 1.332335
v -0.008108 -0.731213 0.997352
v -0.340814 -2.067629 1.417838
v 1.310894 -1.353709 0.858271
v 1.165707 -1.463636 0.478564
v 0.711499 -1.601098 1.498800
v 1.521234 -1.211085 -0.559202
v 1.460635 -1.310647 0.402258
v 1.076610 -1.505462 -0.765566
v 1.560935 -1.146609 0.133354
v 1.425957 -1.217535 0.723377
v -1.658602 -1.686840 -0.507938
v -0.981362 0.077087 -0.076592
v -0.339796 -0.133065 -0.030769
v -1.544044 -2.561883 0.432993
v -1.770766 -2.606676 -0.241665
v -1.344906 -2.474442 -0.384420
v -0.938366 -2.320051 1.288753
v -0.223980 -1.937732 -1.204218
v -0.483609 -1.492124 -0.872444
v -0.728644 -2.180172 -1.050299
v 0.588279 -1.636245 -0.933568
v -1.455409 -2.271335 -1.233450
v -1.852490 -2.241112 -0.070660
v -1.892401 -2.559107 0.299382
v -0.272883 -1.055632 -1.334176
v -0.760058 -1.332005 -1.366458
v -0.097450 -1.775864 -1.854752
v -1.191464 -2.365595 0.432932
v -1.164005 -1.677831 0.006863
v -1.851166 -2.558644 -0.454534
v -1.648303 -2.495159 -0.911449
v -1.710655 -2.377834 -0.831302
v 0.399251 -1.585861 1.747487
v 0.913407 -1.443672 1.464856
v 0.461798 -0.904083 1.118019
v -0.163606 -1.993485 -1.382000
v -1.745518 -2.502291 0.804240
v -1.128528 -2.256435 1.559091
v -0.691175 -2.007884 1.765848
v 0.508422 -1.615724 -1.745391
v 0.321024 -1.795777 -1.225357
v -0.133308 -1.765500 -0.160196
v -0.169637 -1.789598 0.064760
v -0.528548 -2.058051 1.793146
v 1.700844 -6.529067 -0.272825
v 0.256688 -0.921152 -1.192393
v -0.207369 -0.329110 -0.458265
v 0.142421 -1.883833 1.330478
v 0.152420 -1.775564 1.810358
v -0.172577 -1.787596 1.845903
v 0.603243 -3.807701 -0.089607
v 0.339770 -2.658974 -0.198262
v 0.912632 -5.674449 -0.179833
v -0.812360 -1.600971 0.728769
v -0.079412 -1.289326 -0.816295
v 0.020342 -1.938099 1.581761
v 1.012084 -6.548592 0.342699
v 0.784636 -1.612465 -1.273448
v 0.114976 -1.849622 -1.211800
v -1.442853 -2.338160 1.278628
v 1.132790 -1.288253 1.188976
v -1.273912 -2.407186 1.225320
v 1.263058 -4.193758 -0.049474
v 1.792747 -6.526462 0.015459
v -1.035658 -2.340611 0.904598
v -0.943603 -2.210407 0.820255
v 1.307414 -6.540220 0.458320
v -0.789275 0.088612 0.033794
v 0.947125 -3.148028 0.047731
v 0.884721 -6.552202 -0.124000
v 0.899867 -6.551773 0.176663
v 1.053374 -6.547421 -0.366379

# UV coordinates
vt 0.430336 0.264786
vt 0.429786 0.138112
vt 0.536755 0.203598
vt 0.125472 0.656589
vt 0.171907 0.596785
vt 0.296447 0.734459
vt 0.155380 0.000001
vt 0.168407 0.028092
vt 0.139710 0.051678
vt 0.172936 0.048282
vt 0.144216 0.237324
vt 0.194914 0.033633
vt 0.178777 0.145852
vt 0.206687 0.166010
vt 0.725374 0.361676
vt 0.697098 0.720456
vt 0.691326 0.608200
vt 0.859792 0.390451
vt 0.880959 0.396346
vt 0.883383 0.614899
vt 0.846110 0.617788
vt 0.753978 0.302714
vt 0.795367 0.475789
vt 0.812629 0.725163
vt 0.790155 0.727410
vt 0.836840 0.339958
vt 0.598451 0.795343
vt 0.492511 0.795825
vt 0.615291 0.746268
vt 0.581733 0.519844
vt 0.621735 0.548681
vt 0.497069 0.566572
vt 0.105627 0.797611
vt 0.112258 0.724196
vt 0.291081 0.754791
vt 0.573041 0.071647
vt 0.537269 0.144256
vt 0.514001 0.107897
vt 0.373315 0.209594
vt 0.385114 0.272773
vt 0.306727 0.307425
vt 0.346037 0.515779
vt 0.415759 0.529190
vt 0.326756 0.640832
vt 0.671865 0.051585
vt 0.691495 0.194673
vt 0.627661 0.051279
vt 0.558339 0.003959
vt 0.607298 0.004961
vt 0.584814 0.046952
vt 0.505576 0.034330
vt 0.305782 0.221553
vt 0.332035 0.134340
vt 0.422413 0.366912
vt 0.343119 0.349370
vt 0.420547 0.299126
vt 0.518227 0.280007
vt 0.511895 0.369416
vt 0.467547 0.305695
vt 0.221779 0.556580
vt 0.271184 0.572357
vt 0.277191 0.201964
vt 0.369275 0.422004
vt 0.413419 0.395294
vt 0.270469 0.383880
vt 0.544569 0.457079
vt 0.426185 0.429645
vt 0.573912 0.385194
vt 0.455140 0.451658
vt 0.388605 0.436149
vt 0.166798 0.954386
vt 0.121064 0.886653
vt 0.312389 0.759802
vt 0.353214 0.677154
vt 0.522168 0.871531
vt 0.439070 0.869493
vt 0.437881 0.814913
vt 0.301910 0.111996
vt 0.627981 0.185684
vt 0.564889 0.181621
vt 0.611554 0.106001
vt 0.598567 0.315702
vt 0.086100 0.999999
vt 0.046194 0.850030
vt 0.002839 0.813484
vt 0.527374 0.680090
vt 0.527624 0.734253
vt 0.633501 0.671688
vt 0.416534 0.050357
vt 0.471304 0.113863
vt 0.408347 0.818374
vt 0.412703 0.871323
vt 0.366803 0.835780
vt 0.054418 0.948069
vt 0.020011 0.906584
vt 0.203139 0.451236
vt 0.281096 0.415346
vt 0.288858 0.513859
vt 0.648366 0.189110
vt 0.005777 0.746382
vt 0.044445 0.618340
vt 0.086356 0.559182
vt 0.691688 0.292073
vt 0.632238 0.266759
vt 0.640127 0.600739
vt 0.708267 0.117302
vt 0.236127 0.036868
vt 0.212267 0.036530
vt 0.733202 0.910150
vt 0.655453 0.878562
vt 0.734360 0.863117
vt 0.734993 0.725569
vt 0.421315 0.000001
vt 0.527164 0.013750
vt 0.529661 0.622377
vt 0.407076 0.672026
vt 0.282194 0.279315
vt 0.815990 0.884634
vt 0.788242 0.907768
vt 0.216498 0.283692
vt 0.240390 0.151215
vt 0.249561 0.260564
vt 0.687828 0.388168
vt 0.661924 0.608967
vt 0.390106 0.162494
vt 0.557976 0.235060
vt 0.867762 0.829307
vt 0.895832 0.820573
vt 0.849359 0.872091
vt 0.784612 0.864995
vt 0.871982 0.722206
vt 0.906326 0.400629
vt 0.921709 0.620253
vt 0.261158 0.032902
vt 0.640436 0.336109
vt 0.630385 0.236388
vt 0.656974 0.916907
vt 0.027199 0.672615
vt 0.174317 0.281211
vt 0.324977 0.431144
vt 0.491469 0.904104
vt 0.546420 0.915146
vt 0.618414 0.899586
vt 0.612311 0.920933
vt 0.000001 0.077491
vt 0.772564 0.448453
vt 0.696577 0.110863
vt 0.197916 0.025643
vt 0.710072 0.202905
vt 0.766400 0.727467
vt 0.353198 0.086320
vt 0.362807 0.102666
vt 0.666122 0.363650
vt 0.549821 0.831632
vt 0.853172 0.882477
vt 0.839669 0.724440
vt 0.320447 0.728731
vt 0.789931 0.832744
vt 0.609040 0.854594
vt 0.193785 0.282051
vt 0.727212 0.156852
vt 0.803569 0.306936
vt 0.780717 0.310732
vt 0.313651 0.762789
vt 0.329336 0.812033
vt 0.137127 0.501697
vt 0.719606 0.924635
vt 0.723339 0.924576
vt 0.926321 0.720422
vt 0.893109 0.721214
vt 0.660060 0.713323
vt 0.627059 0.708262
vt 0.358094 0.853044
vt 0.364438 0.852822
vt 0.776406 0.442796
vt 0.813615 0.317465
vt 0.364266 0.809799

# vertex normals
vn 0.297615 -0.952125 -0.069880
vn 0.598539 -0.785898 -0.155289
vn 0.371873 -0.922969 0.099193
vn -0.611893 0.438199 0.658459
vn -0.358930 0.548628 0.755101
vn -0.422880 0.614767 0.665758
vn 0.322359 0.217440 -0.921306
vn 0.663400 0.656827 0.358439
vn 0.880114 0.455264 0.134661
vn 0.172721 0.134160 0.975791
vn 0.385229 0.157612 0.909262
vn -0.475355 -0.175544 0.862103
vn -0.592333 -0.193007 0.782234
vn -0.925041 -0.355532 0.133775
vn -0.282246 -0.017073 -0.959190
vn 0.220677 0.101645 -0.970036
vn -0.505869 -0.020023 -0.862378
vn -0.409543 -0.054656 0.910652
vn -0.877920 -0.187105 0.440736
vn -0.921847 -0.078450 0.379531
vn -0.263196 0.027616 0.964347
vn 0.617953 0.224236 -0.753559
vn 0.838138 0.215768 0.500969
vn 0.429018 0.141987 0.892067
vn 0.845092 0.202319 0.494860
vn -0.403679 -0.408706 -0.818537
vn -0.691227 0.415893 -0.590963
vn -0.434056 0.285576 -0.854425
vn 0.512580 0.696094 -0.502707
vn 0.597618 0.306374 -0.740937
vn 0.396885 0.846509 -0.354830
vn -0.940298 0.318615 0.119680
vn -0.830087 0.363397 0.422963
vn -0.909949 0.403516 0.095745
vn 0.815017 -0.300807 0.495241
vn 0.639494 -0.651838 0.407620
vn 0.895196 -0.248924 0.369677
vn 0.313367 -0.685326 -0.657366
vn -0.088775 -0.764291 -0.638732
vn 0.101439 -0.761632 -0.640021
vn 0.405144 0.834896 0.372569
vn 0.480748 0.876266 0.032228
vn 0.316654 0.878966 0.356580
vn 0.335476 -0.895984 -0.290978
vn 0.323518 -0.942399 -0.084973
vn 0.276417 -0.960958 -0.012403
vn 0.175215 -0.969088 -0.173690
vn 0.509269 -0.854508 0.102280
vn 0.940736 -0.313274 0.129904
vn 0.313515 -0.615080 -0.723454
vn 0.541966 -0.578209 -0.609875
vn -0.437277 -0.870370 -0.226374
vn 0.008209 -0.955941 -0.293445
vn -0.402715 -0.826262 -0.393843
vn -0.169517 -0.930491 0.324731
vn -0.376201 -0.907315 0.187755
vn -0.444167 -0.895594 -0.025024
vn -0.081693 0.652742 0.753162
vn 0.103732 0.786948 0.608237
vn 0.373542 -0.925666 -0.060074
vn 0.558569 -0.815383 0.152153
vn 0.332114 -0.943097 0.016390
vn 0.458751 -0.872209 0.169703
vn 0.892464 0.354454 -0.279054
vn 0.602652 -0.797847 0.015838
vn 0.432869 -0.900672 -0.037621
vn 0.733608 0.677102 0.057902
vn 0.688990 0.638182 0.343534
vn -0.897322 0.339919 -0.281547
vn -0.429639 0.642455 -0.634557
vn 0.398865 0.911893 -0.096732
vn 0.256806 -0.965407 0.045165
vn 0.104138 -0.993772 -0.039663
vn 0.409658 -0.911783 -0.028862
vn 0.320317 -0.940024 0.117268
vn 0.294970 -0.543109 0.786146
vn 0.385882 -0.508870 0.769511
vn 0.561935 -0.571679 0.597839
vn -0.146198 -0.859367 0.490014
vn -0.800208 0.237851 -0.550539
vn -0.976850 0.204889 -0.061522
vn -0.963216 -0.222190 0.151149
vn -0.117047 0.646798 -0.753626
vn -0.415813 0.525521 -0.742245
vn -0.150958 0.438312 -0.886056
vn 0.874966 -0.440184 -0.201676
vn 0.941801 -0.335562 -0.020226
vn -0.929920 -0.296203 -0.217976
vn -0.387348 -0.819018 -0.423286
vn -0.902067 0.183512 -0.390638
vn 0.138906 0.549906 0.823595
vn 0.471330 0.394602 0.788757
vn 0.223657 0.749134 0.623519
vn 0.403669 -0.910691 0.087706
vn -0.907397 -0.082888 0.412020
vn -0.504183 -0.136215 0.852787
vn -0.439223 0.384574 0.811902
vn 0.323003 0.158080 -0.933102
vn 0.388787 -0.920072 -0.048080
vn -0.728970 -0.332629 -0.598298
vn -0.888184 -0.400105 0.225933
vn 0.233271 -0.858948 0.455844
vn 0.726819 0.182924 -0.662022
vn 0.142736 0.747807 -0.648391
vn 0.241465 0.852538 -0.463545
vn 0.396065 -0.917041 -0.046558
vn 0.416248 -0.765314 0.490950
vn -0.166034 0.469932 0.866947
vn -0.923153 -0.184183 -0.337438
vn -0.626410 -0.228205 -0.745341
vn -0.851245 -0.070252 -0.520046
vn 0.660432 -0.363104 -0.657255
vn -0.014968 -0.686478 0.726997
vn 0.374591 -0.904799 0.202535
vn -0.594632 0.051891 0.802322
vn 0.424217 -0.899647 -0.103320
vn 0.106229 -0.792645 0.600358
vn -0.781986 0.170535 0.599513
vn 0.495045 0.669164 0.554212
vn 0.132104 -0.971507 0.196779
vn 0.936552 0.233707 -0.261251
vn 0.975836 0.217337 -0.022545
vn 0.446817 -0.892306 -0.064379
vn 0.805041 -0.295785 -0.514217
vn -0.094140 0.099893 0.990535
vn 0.245869 0.936888 0.248573
vn 0.915797 0.331184 0.227229
vn -0.980774 0.003685 -0.195111
vn -0.964719 -0.000945 0.263281
vn -0.554828 0.035903 -0.831190

# Mesh
g Group17613
usemtl DefaultMaterial
f 1/1/1 2/2/2 3/3/3
f 4/4/4 5/5/5 6/6/6
f 7/7/7 8/8/8 9/9/9
f 10/10/10 11/11/11 9/9/9
f 12/12/12 13/13/13 10/10/10
f 13/13/13 12/12/12 14/14/14
f 15/15/15 16/16/16 17/17/17
f 18/18/18 19/19/19 20/20/20
f 18/18/18 20/20/20 21/21/21
f 15/15/15 22/22/22 16/16/16
f 23/23/23 24/24/24 25/25/25
f 23/23/23 11/26/11 24/24/24
f 26/27/26 27/28/27 28/29/28
f 29/30/29 30/31/30 31/32/31
f 32/33/32 33/34/33 34/35/34
f 35/36/35 36/37/36 37/38/37
f 38/39/38 39/40/39 40/41/40
f 41/42/41 42/43/42 43/44/43
f 26/45/26 44/46/44 45/47/45
f 46/48/46 47/49/47 48/50/48
f 49/51/49 35/36/35 37/38/37
f 50/52/50 51/53/51 38/39/38
f 52/54/52 53/55/53 54/56/54
f 55/57/55 56/58/56 57/59/57
f 58/60/58 59/61/59 6/6/6
f 60/62/60 51/53/51 50/52/50
f 61/63/61 53/55/53 62/64/62
f 61/63/61 63/65/63 53/55/53
f 64/66/64 65/67/65 66/68/66
f 65/67/65 67/69/67 68/70/68
f 27/71/27 69/72/69 70/73/70
f 42/43/42 31/32/31 71/74/71
f 72/75/72 73/76/73 74/77/74
f 60/62/60 75/78/75 51/53/51
f 76/79/76 77/80/77 78/81/78
f 79/82/79 56/58/56 55/57/55
f 80/83/80 69/72/69 27/71/27
f 81/84/81 82/85/82 32/33/32
f 83/86/83 84/87/84 70/73/70
f 85/88/85 84/87/84 83/86/83
f 86/89/86 87/90/87 2/2/2
f 87/90/87 36/37/36 2/2/2
f 46/91/46 88/92/88 89/93/89
f 90/94/90 88/95/88 69/72/69
f 41/42/41 68/70/68 42/43/42
f 91/96/91 92/97/92 93/98/93
f 45/47/45 44/46/44 94/99/94
f 79/82/79 66/68/66 56/58/56
f 95/100/95 33/34/33 32/33/32
f 96/101/96 97/102/97 4/4/4
f 44/46/44 98/103/98 99/104/99
f 98/105/98 85/88/85 83/86/83
f 7/106/7 22/22/22 15/15/15
f 100/107/100 14/14/14 101/108/101
f 102/109/102 75/110/75 60/111/60
f 91/96/91 93/98/93 58/60/58
f 22/22/22 103/112/103 16/16/16
f 68/70/68 67/69/67 42/43/42
f 64/66/64 31/32/31 42/43/42
f 72/113/72 74/114/74 86/89/86
f 86/89/86 49/51/49 87/90/87
f 104/115/104 70/73/70 105/116/105
f 31/32/31 30/31/30 104/115/104
f 106/117/106 50/52/50 40/41/40
f 40/41/40 50/52/50 38/39/38
f 67/69/67 65/67/65 64/66/64
f 67/69/67 64/66/64 42/43/42
f 102/109/102 107/118/107 108/119/108
f 97/102/97 5/5/5 4/4/4
f 109/120/109 110/121/110 15/122/15
f 109/123/109 15/15/15 111/124/111
f 51/53/51 112/125/112 38/39/38
f 38/39/38 2/2/2 1/1/1
f 69/72/69 32/33/32 34/35/34
f 69/72/69 81/84/81 32/33/32
f 77/80/77 76/79/76 113/126/113
f 3/3/3 55/57/55 1/1/1
f 63/127/63 92/128/92 91/129/91
f 107/118/107 102/109/102 114/130/114
f 21/21/21 20/20/20 115/131/115
f 20/20/20 109/132/109 111/133/111
f 84/87/84 27/28/27 70/73/70
f 28/29/28 27/28/27 84/87/84
f 110/121/110 7/134/7 15/122/15
f 116/135/116 79/82/79 99/104/99
f 117/136/117 79/82/79 113/126/113
f 75/110/75 102/109/102 96/137/96
f 95/100/95 118/138/118 33/34/33
f 11/26/11 18/18/18 21/21/21
f 11/11/11 10/10/10 18/139/18
f 93/98/93 41/42/41 43/44/43
f 119/140/119 41/42/41 93/98/93
f 30/31/30 98/105/98 104/115/104
f 98/103/98 116/135/116 99/104/99
f 73/76/73 72/75/72 82/141/82
f 95/142/95 120/143/120 118/144/118
f 22/145/22 7/7/7 9/9/9
f 22/22/22 121/146/121 103/112/103
f 44/46/44 26/45/26 28/147/28
f 85/88/85 28/29/28 84/87/84
f 62/64/62 53/55/53 52/54/52
f 66/68/66 62/64/62 56/58/56
f 8/8/8 10/10/10 9/9/9
f 8/8/8 12/148/12 10/10/10
f 33/34/33 4/4/4 6/6/6
f 118/138/118 4/4/4 33/34/33
f 44/46/44 28/147/28 85/149/85
f 98/103/98 44/46/44 85/149/85
f 103/112/103 121/146/121 122/150/122
f 72/113/72 86/89/86 123/151/123
f 124/152/124 86/89/86 2/2/2
f 19/19/19 109/132/109 20/20/20
f 14/14/14 110/121/110 109/120/109
f 66/68/66 30/153/30 64/66/64
f 30/153/30 116/135/116 98/103/98
f 47/49/47 26/45/26 45/47/45
f 26/27/26 80/154/80 27/28/27
f 61/63/61 92/97/92 63/65/63
f 119/140/119 68/70/68 41/42/41
f 120/143/120 96/137/96 118/144/118
f 118/138/118 96/101/96 4/4/4
f 104/115/104 83/86/83 70/73/70
f 98/105/98 83/86/83 104/115/104
f 57/59/57 1/1/1 55/57/55
f 54/56/54 53/55/53 39/40/39
f 46/48/46 48/50/48 49/51/49
f 86/89/86 74/114/74 49/51/49
f 107/118/107 91/155/91 108/119/108
f 63/127/63 91/129/91 107/118/107
f 21/21/21 115/131/115 125/156/125
f 11/26/11 21/21/21 24/24/24
f 79/82/79 55/57/55 113/126/113
f 113/126/113 55/57/55 3/3/3
f 59/61/59 126/157/126 6/6/6
f 33/34/33 6/6/6 34/35/34
f 45/47/45 94/99/94 78/81/78
f 47/49/47 45/47/45 48/50/48
f 63/65/63 106/117/106 40/41/40
f 63/127/63 107/118/107 106/158/106
f 2/2/2 36/37/36 3/3/3
f 78/81/78 77/80/77 36/37/36
f 100/107/100 7/134/7 110/121/110
f 100/107/100 110/121/110 14/14/14
f 120/143/120 95/142/95 72/75/72
f 120/143/120 72/75/72 123/159/123
f 36/37/36 77/80/77 3/3/3
f 77/80/77 113/126/113 3/3/3
f 54/56/54 39/40/39 1/1/1
f 39/40/39 38/39/38 1/1/1
f 34/35/34 6/6/6 126/157/126
f 105/116/105 70/73/70 126/157/126
f 120/143/120 75/110/75 96/137/96
f 75/110/75 120/143/120 123/159/123
f 116/135/116 66/68/66 79/82/79
f 116/135/116 30/153/30 66/68/66
f 13/13/13 14/14/14 19/160/19
f 19/160/19 14/14/14 109/120/109
f 9/161/9 11/162/11 127/163/127
f 22/22/22 9/161/9 127/163/127
f 90/94/90 69/72/69 80/83/80
f 26/164/26 89/93/89 80/165/80
f 31/32/31 104/115/104 105/116/105
f 31/32/31 105/116/105 71/74/71
f 45/47/45 78/81/78 48/50/48
f 78/81/78 36/37/36 35/36/35
f 21/21/21 125/156/125 24/24/24
f 97/102/97 108/166/108 5/5/5
f 108/166/108 91/96/91 58/60/58
f 123/151/123 86/89/86 124/152/124
f 51/53/51 75/78/75 123/151/123
f 12/12/12 101/108/101 14/14/14
f 56/58/56 52/54/52 57/59/57
f 62/64/62 52/54/52 56/58/56
f 49/51/49 48/50/48 35/36/35
f 48/50/48 78/81/78 35/36/35
f 5/5/5 58/60/58 6/6/6
f 108/166/108 58/60/58 5/5/5
f 22/22/22 127/163/127 121/146/121
f 121/146/121 23/23/23 122/150/122
f 51/53/51 123/151/123 124/152/124
f 124/152/124 112/125/112 51/53/51
f 82/85/82 95/100/95 32/33/32
f 72/75/72 95/142/95 82/141/82
f 76/79/76 117/136/117 113/126/113
f 94/99/94 44/46/44 117/136/117
f 106/117/106 60/62/60 50/52/50
f 102/109/102 60/111/60 114/130/114
f 49/51/49 37/38/37 87/90/87
f 37/38/37 36/37/36 87/90/87
f 88/95/88 81/84/81 69/72/69
f 88/95/88 82/85/82 81/84/81
f 114/130/114 60/111/60 106/158/106
f 107/118/107 114/130/114 106/158/106
f 58/60/58 93/98/93 59/61/59
f 93/98/93 43/44/43 59/61/59
f 96/137/96 102/109/102 97/167/97
f 97/168/97 102/109/102 108/119/108
f 63/65/63 40/41/40 53/55/53
f 53/55/53 40/41/40 39/40/39
f 78/81/78 94/99/94 76/79/76
f 76/79/76 94/99/94 117/136/117
f 20/20/20 128/169/128 129/170/129
f 42/43/42 71/74/71 43/44/43
f 71/74/71 105/116/105 126/157/126
f 117/136/117 99/104/99 79/82/79
f 44/46/44 99/104/99 117/136/117
f 17/17/17 16/16/16 130/171/130
f 20/20/20 111/133/111 128/169/128
f 128/172/128 111/124/111 130/171/130
f 65/67/65 68/70/68 62/64/62
f 66/68/66 65/67/65 62/64/62
f 80/165/80 89/93/89 90/173/90
f 89/93/89 88/92/88 90/174/90
f 121/175/121 127/176/127 23/23/23
f 127/176/127 11/26/11 23/23/23
f 57/59/57 54/56/54 1/1/1
f 52/54/52 54/56/54 57/59/57
f 59/61/59 43/44/43 126/157/126
f 43/44/43 71/74/71 126/157/126
f 73/76/73 82/141/82 88/92/88
f 88/92/88 74/77/74 73/76/73
f 111/124/111 17/17/17 130/171/130
f 15/15/15 17/17/17 111/124/111
f 46/48/46 49/51/49 74/114/74
f 88/92/88 46/91/46 74/77/74
f 69/72/69 34/35/34 70/73/70
f 70/73/70 34/35/34 126/157/126
f 38/39/38 112/125/112 2/2/2
f 124/152/124 2/2/2 112/125/112
f 68/70/68 61/63/61 62/64/62
f 61/63/61 68/70/68 119/140/119
f 23/23/23 25/25/25 122/150/122
f 92/97/92 61/63/61 119/140/119
f 92/97/92 119/140/119 93/98/93
f 20/20/20 129/170/129 115/131/115
f 26/164/26 47/177/47 89/93/89
f 46/91/46 89/93/89 47/177/47
f 64/66/64 29/30/29 31/32/31
f 64/66/64 30/31/30 29/30/29
f 13/13/13 19/160/19 18/139/18
f 10/10/10 13/13/13 18/139/18
