# File produced by Open Asset Import Library (http://www.assimp.sf.net)
# (assimp v3.1.187256796)

mtllib RockVar4LowPoly.mtl

# vertex positions
v -0.189054 -0.415992 -0.757951
v -0.344226 -0.352381 0.255151
v -0.193878 0.060316 -0.152375
v 1.340336 0.525601 -0.254290
v 1.281337 -0.141366 -0.844703
v 1.436527 0.965689 -0.544323
v 0.740455 -0.248505 0.825369
v 1.171036 1.201779 0.687558
v 0.584847 0.610378 0.851341
v 0.277626 2.332645 -0.430485
v 0.174638 1.608703 -0.999252
v 0.076706 1.370273 -0.327512
v 1.127984 0.646805 -1.347689
v 1.132071 -0.665549 -0.748264
v 0.093584 0.164613 -1.158882
v 0.465712 2.035713 -0.907543
v 0.736915 2.224245 -0.806654
v 0.316558 1.343399 -1.343220
v 0.470521 2.604389 -0.347766
v 1.065589 2.156441 0.041861
v 0.414395 2.176402 0.524179
v 0.537138 2.608791 -0.108848
v -0.361555 -0.552475 0.469630
v 0.123642 -0.975743 0.606771
v 0.066042 -0.689200 0.733246
v 1.212916 -0.421720 -0.371048
v 1.075652 -0.819979 -0.470090
v -0.339270 -1.305134 0.200706
v 0.160454 -1.391284 0.153482
v 0.114428 -1.269559 0.512539
v 0.121988 -0.891345 -0.674316
v -0.338611 -0.854522 -0.254534
v -0.028517 0.691284 1.008391
v 0.066620 1.459438 -0.013680
v 0.102960 1.810886 0.460213
v 0.210170 2.092100 -0.039964
v 0.968901 -0.447401 0.271293
v 1.468538 1.434924 -0.157193
v 1.288946 1.306877 0.481798
v 1.362374 0.732769 0.100046
v 1.056695 1.407793 0.716765
v 1.030453 1.957487 0.293999
v 0.641176 1.675835 0.818414
v 0.408110 0.786286 -1.432177
v 1.340566 1.519972 -1.173974
v 1.529817 1.552693 -0.523126
v 1.465558 1.198549 -1.029731
v -0.040342 -0.393968 -0.907155
v 0.720753 -1.145339 -0.419532
v 0.684540 -1.254103 0.259808
v 0.477341 -1.393713 0.076036
v 0.150314 1.381292 -0.965413
v 0.069927 1.175826 -0.540149
v 0.026226 -0.273261 0.950416
v 0.466613 -0.254163 0.896882
v 0.348545 -0.778246 0.652465
v 0.770852 -0.759902 0.522178
v 0.136471 1.103863 0.960503
v 0.349545 1.576395 0.894805
v -0.116753 0.870721 0.844042
v -0.277195 0.081649 0.740300
v -0.248168 0.057802 0.905954
v -0.180877 0.615900 0.870498
v -0.308678 -0.466182 -0.027671
v -0.375489 -0.824226 0.331338
v 0.116440 1.229249 -1.290544
v -0.195683 0.486953 0.568227
v 0.353791 -1.300116 0.417895
v 0.588949 -1.276838 0.365719
v 0.221759 -1.055061 0.563648
v -0.097140 0.489334 -0.266916
v -0.183558 0.452585 0.420797
v -0.075814 0.840052 0.203982
v -0.132436 0.059615 -0.511297
v 1.365626 1.868838 0.055659
v -0.362075 -0.690136 0.184080
v -0.320635 -1.326753 0.067195
v -0.348672 -1.096261 -0.060275
v -0.049271 0.577713 -0.422997
v 0.044195 0.785454 -0.760489
v -0.090666 -0.089763 -0.954821
v 0.008701 0.444851 -1.136828
v -0.101965 0.056767 1.040158
v 0.286573 -1.347816 -0.461168
v 0.337257 -1.438816 -0.075291
v 0.081182 -1.449516 -0.237052
v 0.029894 1.259450 -0.139392
v -0.070017 0.670399 -0.323580
v 0.831061 -1.105826 0.346285
v 1.019830 -0.894395 0.055527
v 1.197182 -0.348011 -0.071686
v -0.133294 -0.067672 -0.621559
v 0.439966 2.582345 -0.419056
v -0.222170 0.351252 0.551648
v -0.150781 0.327004 0.361556
v -0.087754 -0.020966 -0.563259
v -0.055898 0.979690 0.283249
v 0.954714 -0.943156 -0.473976
v 0.026778 1.032753 0.157505
v -0.143200 0.425825 0.513351
v -0.326276 -0.372531 0.582313
v 0.105674 1.369474 -0.035090
v 0.100389 1.145794 -0.470899
v 0.598295 1.062636 0.803006
v -0.012346 0.580480 -0.371668
v -0.038252 0.565680 -0.225591
v 1.106551 -0.678342 -0.029912
v -0.380121 -0.547062 0.414668
v 0.021476 0.659258 -0.850735
v 0.074064 0.694070 -0.784277

# UV coordinates
vt 0.980247 0.633423
vt 0.813390 0.608437
vt 0.904041 0.527154
vt 0.405901 0.404068
vt 0.341730 0.525167
vt 0.350414 0.333577
vt 0.597127 0.526389
vt 0.544314 0.309203
vt 0.628049 0.407764
vt 0.771833 0.076487
vt 0.949867 0.147472
vt 0.878992 0.241772
vt 0.234045 0.430719
vt 0.370625 0.610128
vt 0.169352 0.627689
vt 0.007315 0.302911
vt 0.020014 0.241954
vt 0.077186 0.421560
vt 0.589129 0.009424
vt 0.525807 0.133222
vt 0.408570 0.024431
vt 0.660166 0.168961
vt 0.642453 0.044062
vt 0.763011 0.636197
vt 0.660179 0.672728
vt 0.678338 0.625295
vt 0.414990 0.553970
vt 0.415921 0.620420
vt 0.635611 0.814253
vt 0.571853 0.751134
vt 0.621087 0.715677
vt 0.362628 0.770381
vt 0.433639 0.869238
vt 0.246492 0.780798
vt 0.721179 0.411977
vt 0.825720 0.248215
vt 0.729167 0.223707
vt 0.752532 0.142892
vt 0.514363 0.552332
vt 0.416974 0.257110
vt 0.513897 0.288110
vt 0.455212 0.371260
vt 0.564733 0.282247
vt 0.545234 0.180910
vt 0.629331 0.253070
vt 0.136781 0.488111
vt 0.212851 0.253081
vt 0.357153 0.234120
vt 0.265623 0.304819
vt 0.246746 0.736809
vt 0.447321 0.685873
vt 0.542826 0.676016
vt 0.534516 0.718288
vt 0.974139 0.191975
vt 0.926704 0.262805
vt 0.695470 0.552294
vt 0.635205 0.535713
vt 0.632653 0.628112
vt 0.567473 0.600196
vt 0.700928 0.349158
vt 0.671891 0.274494
vt 0.746051 0.385408
vt 0.769337 0.514574
vt 0.747084 0.513925
vt 0.750367 0.427081
vt 0.852853 0.722041
vt 0.850805 0.635716
vt 0.747027 0.697547
vt 0.000001 0.458949
vt 0.007654 0.401374
vt 0.056149 0.462520
vt 0.797132 0.444883
vt 0.588097 0.702030
vt 0.562816 0.680764
vt 0.635121 0.676731
vt 0.923004 0.421556
vt 0.823595 0.446485
vt 0.837878 0.369735
vt 0.964116 0.513492
vt 0.478081 0.192077
vt 0.791106 0.676323
vt 0.601128 0.860000
vt 0.525232 0.868244
vt 0.946242 0.391747
vt 0.988363 0.326421
vt 0.189373 0.700071
vt 0.125480 0.598465
vt 0.719686 0.506616
vt 0.457941 0.753965
vt 0.521619 0.743630
vt 0.517011 0.786584
vt 0.862576 0.279992
vt 0.920676 0.377753
vt 0.542301 0.644611
vt 0.490587 0.615399
vt 0.453759 0.535221
vt 0.977156 0.553734
vt 0.153267 0.741095
vt 0.880336 0.061911
vt 0.719957 0.033222
vt 0.801565 0.469262
vt 0.831714 0.470162
vt 0.973978 0.533904
vt 0.814971 0.344778
vt 0.424637 0.644552
vt 0.846970 0.009291
vt 0.832359 0.329361
vt 0.809892 0.451885
vt 0.759559 0.599159
vt 0.837587 0.262419
vt 0.917341 0.273417
vt 0.628949 0.342366
vt 0.936113 0.390354
vt 0.914357 0.402548
vt 0.470393 0.584969
vt 0.675944 0.817979
vt 0.761833 0.771769
vt 0.772020 0.638246
vt 0.065160 0.603348
vt 0.049934 0.605755
vt 0.999999 0.342713
vt 0.137761 0.741467
vt 0.574067 0.000001
vt 0.700352 0.032983

# vertex normals
vn -0.940260 -0.025157 -0.339527
vn -0.977005 0.179118 -0.115665
vn -0.936113 0.300878 -0.182111
vn 0.986052 -0.154296 0.062405
vn 0.962618 -0.201409 -0.181109
vn 0.987895 -0.149388 0.041790
vn 0.518485 -0.136667 0.844095
vn 0.745027 -0.113840 0.657248
vn 0.250041 0.036002 0.967566
vn -0.927863 0.320511 -0.190637
vn -0.922631 0.299932 -0.242472
vn -0.979799 0.183462 -0.079600
vn 0.297476 -0.270783 -0.915524
vn 0.145848 -0.455310 -0.878306
vn -0.091293 -0.369334 -0.924802
vn -0.453799 0.568869 -0.685897
vn 0.475365 0.721978 -0.502768
vn -0.002558 0.401181 -0.915995
vn 0.652473 0.727014 -0.213844
vn 0.631644 0.759460 0.155716
vn -0.172495 0.760753 0.625700
vn 0.261913 0.859580 0.438777
vn -0.632622 -0.340465 0.695611
vn -0.286748 -0.379343 0.879701
vn -0.587966 -0.405984 0.699624
vn 0.976808 -0.208588 0.048341
vn 0.893666 -0.448597 -0.011020
vn -0.563908 -0.636304 0.526426
vn -0.070499 -0.966764 0.245758
vn -0.141419 -0.695804 0.704171
vn -0.331627 -0.477814 -0.813460
vn -0.912606 -0.174780 -0.369597
vn 0.053444 0.059639 0.996788
vn -0.980672 0.179291 -0.078340
vn -0.896054 0.373309 0.240267
vn -0.897710 0.431377 0.089618
vn 0.860479 -0.200204 0.468502
vn 0.980976 -0.035159 0.190920
vn 0.942264 0.010380 0.334709
vn 0.959261 -0.150038 0.239390
vn 0.499418 0.329725 0.801164
vn 0.508653 0.578919 0.637279
vn 0.361625 0.386559 0.848410
vn -0.026434 -0.014597 -0.999544
vn 0.364163 0.407099 -0.837649
vn 0.875351 0.461787 -0.143221
vn 0.944079 -0.106737 -0.311966
vn -0.080901 -0.417319 -0.905152
vn 0.524982 -0.807351 -0.269404
vn 0.642658 -0.765433 -0.033204
vn 0.396407 -0.917898 -0.018028
vn -0.987522 0.145011 -0.061425
vn -0.995259 0.097146 0.004750
vn -0.118056 -0.405861 0.906278
vn 0.175344 -0.353896 0.918701
vn 0.251879 -0.449001 0.857295
vn 0.553766 -0.352498 0.754380
vn 0.105406 0.109859 0.988342
vn -0.342840 0.354853 0.869793
vn -0.929593 0.299944 0.214219
vn -0.988006 0.146570 0.048594
vn -0.744905 -0.189227 0.639773
vn -0.944841 0.188947 0.267536
vn -0.980994 0.132713 -0.141556
vn -0.875248 -0.189377 0.445059
vn -0.807216 0.172399 -0.564518
vn -0.971666 0.161055 -0.172991
vn 0.083849 -0.937946 0.336492
vn 0.323870 -0.602020 0.729850
vn 0.268178 -0.369715 0.889602
vn -0.963787 0.227307 -0.139448
vn -0.988085 0.153648 -0.008914
vn -0.972608 0.230351 -0.031165
vn -0.983488 0.033873 -0.177775
vn 0.815735 0.553808 0.166954
vn -0.990832 0.080281 -0.108659
vn -0.647002 -0.498625 -0.576854
vn -0.879521 -0.284617 -0.381362
vn -0.977283 0.179959 -0.111946
vn -0.951010 0.103338 -0.291377
vn -0.939665 0.066295 -0.335611
vn -0.943287 0.065263 -0.325499
vn 0.062894 -0.038511 0.997277
vn 0.152259 -0.698481 -0.699244
vn 0.166818 -0.985350 -0.035456
vn -0.410466 -0.828586 -0.380740
vn -0.949500 0.302906 -0.081846
vn -0.972899 0.126880 -0.193312
vn 0.727089 -0.491365 0.479481
vn 0.900174 -0.323138 0.292006
vn 0.916426 -0.200758 0.346207
vn -0.965393 0.256831 -0.045328
vn -0.741827 0.657875 -0.129976
vn -0.954742 0.267052 -0.130966
vn -0.971298 0.199379 -0.129727
vn -0.936603 0.294059 -0.190536
vn -0.970584 0.147280 -0.190463
vn 0.678383 -0.727132 -0.105247
vn -0.967776 0.249110 -0.036807
vn -0.961529 0.210843 -0.176089
vn -0.706218 -0.320236 0.631431
vn -0.986959 0.031072 -0.157947
vn -0.935004 0.237634 -0.263243
vn 0.251955 0.016066 0.967606
vn -0.973055 0.230303 -0.011166
vn -0.983190 0.099339 -0.153194
vn 0.935295 -0.266065 0.233307
vn -0.995534 0.094246 0.005441
vn -0.984506 0.175138 0.008600
vn -0.984268 0.164370 -0.064806

# Mesh
g Group34631
usemtl DefaultMaterial
f 1/1/1 2/2/2 3/3/3
f 4/4/4 5/5/5 6/6/6
f 7/7/7 8/8/8 9/9/9
f 10/10/10 11/11/11 12/12/12
f 13/13/13 14/14/14 15/15/15
f 16/16/16 17/17/17 18/18/18
f 19/19/19 20/20/20 17/21/17
f 21/22/21 20/20/20 22/23/22
f 23/24/23 24/25/24 25/26/25
f 26/27/26 27/28/27 5/5/5
f 28/29/28 29/30/29 30/31/30
f 31/32/31 32/33/32 1/34/1
f 33/35/33 7/7/7 9/9/9
f 34/36/34 35/37/35 36/38/36
f 28/29/28 30/31/30 24/25/24
f 7/7/7 37/39/37 8/8/8
f 38/40/38 39/41/39 40/42/40
f 41/43/41 42/44/42 43/45/43
f 13/13/13 44/46/44 45/47/45
f 46/48/46 47/49/47 45/47/45
f 48/50/48 14/14/14 31/32/31
f 49/51/49 50/52/50 51/53/51
f 52/54/52 53/55/53 11/11/11
f 44/46/44 13/13/13 15/15/15
f 54/56/54 24/25/24 55/57/55
f 7/7/7 56/58/56 57/59/57
f 58/60/58 59/61/59 60/62/60
f 61/63/61 62/64/62 63/65/63
f 1/1/1 32/66/32 64/67/64
f 65/68/65 24/25/24 23/24/23
f 52/69/52 11/70/11 66/71/66
f 11/70/11 16/16/16 66/71/66
f 12/12/12 11/11/11 53/55/53
f 61/63/61 63/65/63 67/72/67
f 30/31/30 29/30/29 68/73/68
f 30/31/30 69/74/69 70/75/70
f 71/76/71 72/77/72 73/78/73
f 72/77/72 71/76/71 74/79/74
f 17/21/17 75/80/75 46/48/46
f 75/80/75 39/41/39 38/40/38
f 76/81/76 32/66/32 65/68/65
f 77/82/77 78/83/78 31/32/31
f 35/37/35 21/22/21 36/38/36
f 60/62/60 59/61/59 35/37/35
f 74/79/74 79/84/79 80/85/80
f 1/34/1 48/50/48 31/32/31
f 35/37/35 59/61/59 21/22/21
f 43/45/43 42/44/42 21/22/21
f 1/34/1 81/86/81 48/50/48
f 82/87/82 66/71/66 15/15/15
f 83/88/83 7/7/7 33/35/33
f 62/64/62 33/35/33 63/65/63
f 84/89/84 49/51/49 51/53/51
f 84/89/84 85/90/85 86/91/86
f 60/62/60 35/37/35 34/36/34
f 87/92/87 88/93/88 73/78/73
f 89/94/89 27/28/27 90/95/90
f 8/8/8 37/39/37 91/96/91
f 3/3/3 92/97/92 1/1/1
f 81/86/81 1/34/1 92/98/92
f 10/10/10 16/99/16 11/11/11
f 21/22/21 93/100/93 36/38/36
f 90/95/90 37/39/37 89/94/89
f 89/94/89 57/59/57 70/75/70
f 94/101/94 3/3/3 2/2/2
f 3/3/3 95/102/95 96/103/96
f 45/47/45 44/46/44 18/18/18
f 66/71/66 44/46/44 15/15/15
f 97/104/97 60/62/60 34/36/34
f 67/72/67 60/62/60 97/104/97
f 98/105/98 89/94/89 50/52/50
f 69/74/69 89/94/89 70/75/70
f 10/10/10 93/100/93 16/99/16
f 93/100/93 17/106/17 16/99/16
f 91/96/91 40/42/40 8/8/8
f 5/5/5 4/4/4 26/27/26
f 99/107/99 100/108/100 67/72/67
f 3/3/3 94/101/94 95/102/95
f 66/71/66 18/18/18 44/46/44
f 66/71/66 16/16/16 18/18/18
f 62/64/62 83/88/83 33/35/33
f 101/109/101 25/26/25 62/64/62
f 100/108/100 99/107/99 72/77/72
f 72/77/72 74/79/74 95/102/95
f 98/105/98 50/52/50 49/51/49
f 14/14/14 49/51/49 84/89/84
f 52/54/52 79/84/79 53/55/53
f 102/110/102 53/55/53 103/111/103
f 59/61/59 58/60/58 104/112/104
f 59/61/59 43/45/43 21/22/21
f 27/28/27 14/14/14 5/5/5
f 14/14/14 98/105/98 49/51/49
f 55/57/55 83/88/83 54/56/54
f 54/56/54 83/88/83 62/64/62
f 53/55/53 105/113/105 103/111/103
f 88/93/88 87/92/87 103/111/103
f 75/80/75 17/21/17 20/20/20
f 42/44/42 41/43/41 75/80/75
f 86/91/86 29/30/29 28/29/28
f 31/32/31 86/91/86 77/82/77
f 88/93/88 103/111/103 105/113/105
f 106/114/106 73/78/73 88/93/88
f 27/28/27 26/27/26 107/115/107
f 26/27/26 4/4/4 91/96/91
f 28/29/28 77/82/77 86/91/86
f 77/116/77 28/29/28 78/117/78
f 73/78/73 106/114/106 71/76/71
f 105/113/105 53/55/53 79/84/79
f 2/2/2 61/63/61 94/101/94
f 76/81/76 64/67/64 32/66/32
f 39/41/39 75/80/75 8/8/8
f 8/8/8 40/42/40 39/41/39
f 74/79/74 71/76/71 79/84/79
f 105/113/105 79/84/79 71/76/71
f 61/63/61 2/2/2 108/118/108
f 62/64/62 61/63/61 101/109/101
f 41/43/41 43/45/43 104/112/104
f 43/45/43 59/61/59 104/112/104
f 81/86/81 92/98/92 109/119/109
f 66/71/66 82/87/82 109/119/109
f 67/72/67 94/101/94 61/63/61
f 100/108/100 94/101/94 67/72/67
f 55/57/55 7/7/7 83/88/83
f 7/7/7 55/57/55 56/58/56
f 86/91/86 31/32/31 84/89/84
f 14/14/14 84/89/84 31/32/31
f 100/108/100 72/77/72 95/102/95
f 94/101/94 100/108/100 95/102/95
f 30/31/30 70/75/70 24/25/24
f 56/58/56 55/57/55 24/25/24
f 87/92/87 102/110/102 103/111/103
f 102/110/102 87/92/87 99/107/99
f 48/50/48 15/15/15 14/14/14
f 48/50/48 81/86/81 15/15/15
f 104/112/104 9/9/9 8/8/8
f 58/60/58 9/9/9 104/112/104
f 25/26/25 101/109/101 23/24/23
f 101/109/101 61/63/61 23/24/23
f 81/86/81 82/87/82 15/15/15
f 109/119/109 82/87/82 81/86/81
f 107/115/107 37/39/37 90/95/90
f 27/28/27 107/115/107 90/95/90
f 18/18/18 17/17/17 45/47/45
f 45/47/45 17/21/17 46/48/46
f 97/104/97 34/36/34 102/110/102
f 34/36/34 53/55/53 102/110/102
f 92/97/92 3/3/3 96/103/96
f 110/120/110 109/119/109 92/98/92
f 4/4/4 40/42/40 91/96/91
f 4/4/4 6/6/6 40/42/40
f 50/52/50 69/74/69 51/53/51
f 50/52/50 89/94/89 69/74/69
f 60/62/60 33/35/33 58/60/58
f 9/9/9 58/60/58 33/35/33
f 10/10/10 36/38/36 93/100/93
f 34/36/34 36/38/36 10/10/10
f 6/6/6 47/49/47 46/48/46
f 46/48/46 75/80/75 38/40/38
f 28/29/28 24/25/24 65/68/65
f 28/29/28 65/68/65 78/117/78
f 27/28/27 89/94/89 98/105/98
f 27/28/27 98/105/98 14/14/14
f 67/72/67 63/65/63 60/62/60
f 63/65/63 33/35/33 60/62/60
f 75/80/75 20/20/20 42/44/42
f 20/20/20 21/22/21 42/44/42
f 96/103/96 95/102/95 74/79/74
f 74/79/74 80/85/80 110/121/110
f 32/66/32 78/117/78 65/68/65
f 31/32/31 78/83/78 32/33/32
f 10/10/10 12/12/12 34/36/34
f 34/36/34 12/12/12 53/55/53
f 110/120/110 92/98/92 96/122/96
f 96/103/96 74/79/74 110/121/110
f 108/118/108 23/24/23 61/63/61
f 65/68/65 23/24/23 108/118/108
f 71/76/71 106/114/106 105/113/105
f 106/114/106 88/93/88 105/113/105
f 22/23/22 20/20/20 19/19/19
f 22/23/22 93/100/93 21/22/21
f 76/81/76 65/68/65 108/118/108
f 108/118/108 2/2/2 76/81/76
f 99/107/99 97/104/97 102/110/102
f 67/72/67 97/104/97 99/107/99
f 47/49/47 6/6/6 5/5/5
f 5/5/5 14/14/14 13/13/13
f 24/25/24 70/75/70 56/58/56
f 57/59/57 56/58/56 70/75/70
f 109/119/109 52/69/52 66/71/66
f 110/120/110 52/69/52 109/119/109
f 2/2/2 64/67/64 76/81/76
f 2/2/2 1/1/1 64/67/64
f 37/39/37 57/59/57 89/94/89
f 7/7/7 57/59/57 37/39/37
f 52/54/52 110/121/110 80/85/80
f 52/54/52 80/85/80 79/84/79
f 86/91/86 85/90/85 29/30/29
f 68/73/68 29/30/29 51/53/51
f 46/48/46 38/40/38 6/6/6
f 38/40/38 40/42/40 6/6/6
f 99/107/99 73/78/73 72/77/72
f 99/107/99 87/92/87 73/78/73
f 13/13/13 47/49/47 5/5/5
f 45/47/45 47/49/47 13/13/13
f 24/25/24 54/56/54 25/26/25
f 54/56/54 62/64/62 25/26/25
f 85/90/85 51/53/51 29/30/29
f 84/89/84 51/53/51 85/90/85
f 91/96/91 37/39/37 107/115/107
f 26/27/26 91/96/91 107/115/107
f 69/74/69 68/73/68 51/53/51
f 68/73/68 69/74/69 30/31/30
f 93/123/93 19/19/19 17/21/17
f 93/100/93 22/23/22 19/124/19
f 8/8/8 75/80/75 41/43/41
f 41/43/41 104/112/104 8/8/8
